<?xml version="1.0" encoding="utf-8"?><svg viewBox="0 0 76 65" xmlns="http://www.w3.org/2000/svg" xmlns:xlink="http://www.w3.org/1999/xlink"><style>:root>svg{display:none}:root>svg:target{display:block}</style><svg viewBox="0 0 66 9" id="cloud" xmlns="http://www.w3.org/2000/svg"><g clip-path="url(#clip0)" fill-rule="evenodd" clip-rule="evenodd"><path d="M27.881 8.718h37.143V8.64c-.959-.951-.93-1.174-2.837-1.409-.383-1.547-.94-2.176-2.086-2.816-1.65-.921-4.185-.843-5.776.38-.437.337-.444.133-1.072.152-1.273.039-1.786.65-2.406 1.28-.257.262-.56.124-.986.286-.371.14-.524.325-.786.456-.312-2.651-2.793-4.572-5.423-5.06-2.421-.448-5.404.357-6.906 2.068l-.593.69c-1.563-.046-2.802.738-3.178 1.722-1.369-.278-2.071-.513-3.432.04-.828.335-1.769 1.133-1.662 2.29zM0 8.644v.074h15.897c.005-.992-1.1-1.26-2.096-1.013l-.217-.209c-.168-.18-.28-.332-.59-.427-.833-.253-.37.158-.926-.427-.357-.376-1.143-.796-1.918-.867-1.73-.158-3.02.747-3.314 2.163-.168-.083-.186-.098-.383-.16-.784-.25-.38-.334-.967-.572-.402-.162-.574-.019-.925-.173-.203-.089-.363-.24-.685-.333-2.013-.579-2.701 1.33-2.701 1.33-.544.32-.593.041-1.175.614zM11.43 1.047c-.982-.278-2.394-.25-2.627.658l6.948-.004C15.653.734 14.945.167 13.944.028a2.952 2.952 0 00-1.527.193c-.349.15-.483.28-.727.54l-.26.286z"/></g></svg><svg viewBox="0 0 76 65" id="img-footer-1" xmlns="http://www.w3.org/2000/svg"><path fill-rule="evenodd" clip-rule="evenodd" d="M60.876 50.566c.038-.46 1.188-3.377 1.36-3.844.933-2.525 2.071-5.002 3.158-7.446l3.492-7.014c.18-.301.285-.558.433-.843 1.144-2.2 3.121-5.483 4.517-7.462.188-.267.32-.458.534-.743.19-.252.47-.541.547-.827-.546.366-3.7 4.143-4.147 4.69-.67.821-1.325 1.62-1.955 2.463-.325.436-.612.77-.928 1.232-1.096 1.602-2.485 3.33-3.692 5.145-1.12 1.685-2.504 3.704-3.52 5.414l-.754 1.21c-.139.204-.027.058-.125.17l.618-4.684c.46-3.14 1.39-7.909 2.292-10.963.17-.573.58-1.494.625-2.026-.873 1.005-3.802 9.197-4.112 10.126-.299.898-.558 1.751-.86 2.674-.317.97-.53 1.884-.81 2.823-.323 1.091-1.36 4.633-1.386 5.782h-.196c-.113-1.353-3.354-7.503-4.354-9.49-1.754-3.483-4.014-6.73-6.434-9.768-.98-1.23-2.028-2.424-3.165-3.512-1.639-1.569-3.285-3.195-5.26-4.361-2.676-1.58-3.421-1.958-6.087-3.242-2.178-1.05-4.528-1.78-6.871-2.456-1.241-.359-2.446-.637-3.687-.929-1.123-.263-2.9-.706-4.006-.706v3.633c1.09.024 2.358.369 3.398.627 1.093.273 2.057.591 3.041.985 1.414.565 4.324 2.07 4.656 3.493-.932.078-1.851-.06-2.82-.224-.907-.152-1.868-.308-2.834-.504-1.864-.376-3.648-.72-5.441-1.137 0 .311-.027 2.416.017 2.535.136.36.502.239.964.313.365.058.75.12 1.09.187 2.126.421 4.025.901 5.98 1.678 1.49.591 3.852 1.758 4.713 3.044l-6.166-1.394c-1.68-.398-4.77-1.06-6.5-1.06 0 .96.196 2.114.196 3.043l3.724.694c2.363.49 4.703 1.091 6.868 1.97.846.343 2.247 1.003 2.467 1.95-1.55 0-4.67-.888-6.34-1.219-2.061-.407-4.39-1.039-6.522-1.039.288 3.47.991 4.25 3.459 6.262 1.114.909 2.283 1.805 3.494 2.593.357.232.49.232.517.76.03.585.038 1.887-.021 2.45-.059.562-.21 1.485-.61 1.751-.295.197-.604.132-.887-.03-.403-.23-.708-.557-.976-.892-1.792-2.24-3.03-4.889-4.163-7.521-.241-.562-.574-1.135-.715-1.74-.648 0-1.167.116-1.754.21-1.106.177-.965-.036-.575.842.523 1.18 4.057 8.539 1.619 9.046-.608.126-1.15-.208-1.492-.434-.238-.158-.363-.239-.57-.41-.22-.181-.387-.29-.593-.489-1.223-1.177-4.96-5.916-5.276-7.096-1.174.098-7.023 2.06-8.051 2.553.244.462.536.914.786 1.375L6.48 48.897c1.902 0 3.723-.197 5.597-.196 3.55.002 7.301-.132 10.563 1.121.864.332 3.494 1.458 3.87 2.021-.246.118-.948.14-1.277.195-4.96.843-7.44 3.35-9.187 7.897-.526 1.367-1.121 3.571-1.121 5.065H70.4c0-.385.069-.797.106-1.269.13-1.673.434-1.893-.692-1.875-.604.01-.71-.095-1.276-.1-1.797-.012-3.48-.29-5.305-.29 1.685-2.518 3.592-3.93 6.185-5.303-.128-.55-.544-1.605-.785-2.062-3.486 0-4.714 1.604-5.695 1.866 0-1.803 1.105-3.552 2.356-4.517.469-.362.822-.689 1.375-.982l-1.178-1.67c-.197-.25-.308-.271-.393-.588-.838.07-2.416 1.234-3.2 1.71-.369.224-.62.54-1.022.647z"/><path fill-rule="evenodd" clip-rule="evenodd" d="M51.843 22.583v.491c0 .653.814 1.276 1.473 1.276.658 0 1.473-.623 1.473-1.276 0-1.001-.234-1.767-1.67-1.767-.602 0-1.276.674-1.276 1.276zM7.953 26.805c0 1.052 1.473 1.04 1.473 0 0-1.015-1.473-1.015-1.473 0zM69.32 40.355a.6.6 0 00.59.59c.396 0 .687-.215.687-.59 0-.833-1.277-.833-1.277 0zM24.252.49c0 .463.472.394.786.394.253-.479.263-.386 0-.884h-.59c-.065.124-.196.325-.196.49zM75.113 22.19h.099l-.082-.114-.017.114zM75.113 22.19l-.098.098.098-.098zM75.015 22.288l-.098.099.098-.099zM63.429 24.841l.113-.191-.113.191zM63.33 25.038l.099-.197-.098.197z"/></svg></svg>