<svg width="66" height="9" viewBox="0 0 66 9" xmlns="http://www.w3.org/2000/svg">
<g clip-path="url(#clip0)">
<path fill-rule="evenodd" clip-rule="evenodd" d="M27.8813 8.7181H65.0238V8.63998C64.0652 7.68904 64.0934 7.46595 62.1868 7.23111C61.8044 5.68353 61.2464 5.05479 60.1013 4.4151C58.4518 3.49375 55.9157 3.57234 54.3249 4.79585C53.8877 5.13213 53.8809 4.92829 53.253 4.94739C51.9799 4.98591 51.4667 5.59742 50.8473 6.2271C50.5898 6.48887 50.2878 6.35125 49.8615 6.51266C49.4896 6.65372 49.3368 6.83846 49.0746 6.96919C48.7626 4.31787 46.2816 2.3969 43.6516 1.9097C41.2306 1.461 38.2485 2.26555 36.7461 3.97705L36.1526 4.667C34.5897 4.62144 33.3507 5.4047 32.9754 6.38898C31.6065 6.11062 30.904 5.87563 29.5432 6.42812C28.7155 6.7641 27.7741 7.56223 27.8812 8.7181H27.8813Z"/>
<path fill-rule="evenodd" clip-rule="evenodd" d="M0.000313116 8.64421V8.7181H15.8969C15.9018 7.72615 14.7962 7.45781 13.8008 7.70454L13.5839 7.49632C13.4164 7.31659 13.3035 7.16395 12.9931 7.06939C12.1611 6.81623 12.6231 7.2272 12.068 6.64183C11.7115 6.26609 10.9249 5.84573 10.1498 5.77481C8.4208 5.61668 7.1306 6.52237 6.83611 7.93813C6.66766 7.85515 6.64965 7.84028 6.45286 7.77766C5.66929 7.52795 6.07383 7.44372 5.4858 7.20638C5.08391 7.04418 4.91201 7.18712 4.56148 7.03322C4.35827 6.94398 4.19811 6.79244 3.87591 6.69975C1.86257 6.12096 1.17497 8.03019 1.17481 8.03034C0.631399 8.35003 0.582396 8.0712 0 8.64421H0.000313116Z"/>
<path fill-rule="evenodd" clip-rule="evenodd" d="M11.4303 1.04675C10.4483 0.768546 9.03632 0.796414 8.80273 1.70539L15.7509 1.70132C15.6531 0.734103 14.9448 0.166737 13.9441 0.0275563C13.417 -0.0457129 12.8609 0.030844 12.4175 0.221062C12.0681 0.370888 11.9341 0.501928 11.69 0.761501L11.4303 1.04675V1.04675Z" />
</g>

</svg>
