<svg width="76" height="65" viewBox="0 0 76 65"  xmlns="http://www.w3.org/2000/svg">
<path fill-rule="evenodd" clip-rule="evenodd" d="M60.8762 50.5665C60.9144 50.1056 62.0637 47.1891 62.2361 46.7225C63.1691 44.1966 64.3072 41.7205 65.3941 39.2762L68.8861 32.2622C69.0666 31.9608 69.1706 31.7039 69.3189 31.4187C70.4632 29.2188 72.4405 25.9355 73.8362 23.957C74.0242 23.6904 74.1551 23.499 74.3698 23.2142C74.5598 22.9621 74.8406 22.6727 74.917 22.3867C74.3707 22.7525 71.2171 26.5305 70.7705 27.0771C70.0994 27.8985 69.4448 28.6969 68.8151 29.5401C68.4896 29.976 68.2025 30.3104 67.8867 30.7719C66.7906 32.3739 65.4016 34.1019 64.1949 35.917C63.0747 37.6019 61.6912 39.6209 60.6742 41.3312L59.9207 42.5415C59.7824 42.7452 59.8936 42.5993 59.7961 42.7115L60.4138 38.0269C60.8745 34.887 61.8045 30.118 62.7064 27.0643C62.8758 26.4907 63.2867 25.57 63.3308 25.0378C62.4576 26.0426 59.529 34.235 59.2195 35.1636C58.9203 36.0615 58.6606 36.9151 58.3591 37.8379C58.0423 38.8075 57.8281 39.722 57.5496 40.6613C57.226 41.7525 56.1888 45.2935 56.1632 46.4425H55.9668C55.8543 45.0904 52.6134 38.9403 51.6126 36.9524C49.8591 33.4696 47.5991 30.2233 45.1791 27.1849C44.1992 25.9547 43.1512 24.7613 42.0143 23.673C40.3755 22.1041 38.7292 20.4776 36.7535 19.3115C34.0776 17.7321 33.3326 17.354 30.6674 16.0698C28.4889 15.0201 26.1391 14.2907 23.7956 13.6138C22.5547 13.2554 21.3496 12.9766 20.109 12.6855C18.9864 12.4221 17.2089 11.9788 16.1028 11.9788V15.6117C17.1931 15.636 18.461 15.9806 19.5007 16.2395C20.5941 16.5119 21.5583 16.8301 22.5423 17.2236C23.9561 17.789 26.8662 19.2934 27.198 20.7174C26.2657 20.795 25.3468 20.6563 24.3783 20.4933C23.4711 20.3407 22.5101 20.1847 21.5438 19.9894C19.6803 19.6127 17.8959 19.2696 16.1028 18.852C16.1028 19.1635 16.0757 21.2684 16.1204 21.3872C16.2558 21.7469 16.6221 21.6256 17.0845 21.6996C17.4491 21.7579 17.8341 21.8192 18.1739 21.8866C20.3003 22.3083 22.1989 22.7883 24.1542 23.5648C25.6436 24.1561 28.0063 25.3234 28.8671 26.6087L22.7009 25.2146C21.0205 24.8175 17.9317 24.1541 16.201 24.1541C16.201 25.1154 16.3973 26.2694 16.3973 27.1979L20.1214 27.8923C22.4842 28.3814 24.8238 28.9835 26.989 29.8615C27.8349 30.2046 29.2357 30.8653 29.4563 31.8127C27.9068 31.8127 24.7864 30.9237 23.1154 30.5932C21.0547 30.1855 18.7268 29.5544 16.5937 29.5544C16.8825 33.0249 17.585 33.8032 20.0529 35.8158C21.1675 36.7249 22.3356 37.6213 23.5472 38.409C23.9039 38.6409 24.0365 38.641 24.0636 39.1691C24.0936 39.7537 24.1016 41.0562 24.0429 41.6184C23.9842 42.1805 23.833 43.1041 23.4333 43.3704C23.138 43.5671 22.8286 43.5016 22.5463 43.3403C22.143 43.1099 21.8378 42.7829 21.5701 42.4481C19.7783 40.2072 18.5408 37.5594 17.4074 34.9266C17.1658 34.3652 16.8327 33.7916 16.6919 33.1874C16.0439 33.1874 15.5253 33.3031 14.9376 33.397C13.8317 33.5737 13.9732 33.3606 14.3626 34.2385C14.8862 35.419 18.4196 42.7777 15.9815 43.2849C15.3743 43.4113 14.8329 43.0773 14.4904 42.851C14.2519 42.6934 14.1272 42.612 13.9191 42.4404C13.6999 42.2595 13.533 42.151 13.3269 41.9525C12.1039 40.7745 8.3664 36.0365 8.05132 34.8565C6.8772 34.9542 1.0283 36.916 0 37.4094C0.24443 37.8712 0.535925 38.3232 0.78551 38.7841L6.48029 48.8974C8.38157 48.8974 10.2032 48.6999 12.077 48.701C15.6277 48.7031 19.3784 48.5694 22.6402 49.8221C23.5041 50.1539 26.1338 51.2804 26.5105 51.843C26.264 51.9612 25.5618 51.9822 25.2328 52.0381C20.2722 52.8807 17.7922 55.3879 16.0456 59.9354C15.5204 61.3025 14.9245 63.5064 14.9245 65.0001H70.4001C70.4001 64.6154 70.469 64.2032 70.5058 63.7312C70.6363 62.0581 70.9398 61.8376 69.8136 61.8558C69.2103 61.8655 69.1048 61.7608 68.538 61.7567C66.741 61.744 65.0578 61.4655 63.2326 61.4655C64.9183 58.948 66.8245 57.5358 69.4184 56.1633C69.29 55.6122 68.8743 54.5578 68.6329 54.1014C65.1474 54.1014 63.9191 55.705 62.938 55.967C62.938 54.1638 64.0425 52.4153 65.2936 51.4495C65.7625 51.0876 66.1156 50.7614 66.6691 50.4685L65.4914 48.7988C65.2943 48.5476 65.1826 48.5266 65.0981 48.2103C64.2599 48.2799 62.6823 49.4442 61.8987 49.9202C61.5294 50.1445 61.2776 50.4595 60.8761 50.5668L60.8762 50.5665Z" />
<path fill-rule="evenodd" clip-rule="evenodd" d="M51.843 22.5831V23.0741C51.843 23.7275 52.6574 24.3505 53.3158 24.3505C53.9742 24.3505 54.7887 23.7275 54.7887 23.0741C54.7887 22.0729 54.555 21.3066 53.1195 21.3066C52.5174 21.3066 51.8431 21.981 51.8431 22.5831H51.843Z" />
<path fill-rule="evenodd" clip-rule="evenodd" d="M7.95337 26.805C7.95337 27.8571 9.42619 27.8455 9.42619 26.805C9.42619 25.7903 7.95337 25.7903 7.95337 26.805Z" />
<path fill-rule="evenodd" clip-rule="evenodd" d="M69.3203 40.355C69.3203 40.6725 69.5919 40.9441 69.9094 40.9441C70.306 40.9441 70.5967 40.7303 70.5967 40.355C70.5967 39.5217 69.3204 39.5217 69.3204 40.355H69.3203Z" />
<path fill-rule="evenodd" clip-rule="evenodd" d="M24.2524 0.490921C24.2524 0.953093 24.7235 0.883707 25.038 0.883707C25.2912 0.40528 25.3012 0.497532 25.038 0H24.4488C24.3832 0.123974 24.2524 0.324612 24.2524 0.490921Z" />
<path fill-rule="evenodd" clip-rule="evenodd" d="M75.1133 22.1903H75.2115L75.1297 22.0758L75.1133 22.1903Z" />
<path fill-rule="evenodd" clip-rule="evenodd" d="M75.1133 22.1903L75.0151 22.2885L75.1133 22.1903Z" />
<path fill-rule="evenodd" clip-rule="evenodd" d="M75.0151 22.2885L74.917 22.3867L75.0151 22.2885Z" />
<path fill-rule="evenodd" clip-rule="evenodd" d="M63.429 24.8414L63.5419 24.6499L63.429 24.8414Z" />
<path fill-rule="evenodd" clip-rule="evenodd" d="M63.3308 25.0378L63.429 24.8414L63.3308 25.0378Z" />
</svg>
